<svg xmlns="http://www.w3.org/2000/svg" xmlns:xlink="http://www.w3.org/1999/xlink" version="1.1" id="Слой_1" x="0px" y="0px" width="73.742px" height="87.742px" viewBox="0 0 73.742 87.742" enable-background="new 0 0 320 87.742" xml:space="preserve">
<g>
	<path fill="#05509F" d="M36.463,16.025v64.253h2.731V20.626c6.595,2.74,11.229,9.189,11.229,16.716   c0,6.607-3.316,12.093-8.654,15.26v4.022c7.122-3.597,12.3-10.826,12.3-19.282C54.068,26.808,46.507,18.019,36.463,16.025z    M24.079,33.518l-0.882-1.14c-4.021,3.263-7.005,7.813-8.284,13.3c-2.556,10.966,2.556,23.046,14.307,28.124l0.356-1.72   c-10.296-3.827-15.718-15.737-13.3-26.094C17.485,40.797,20.257,36.587,24.079,33.518z M12.133,45.105   c1.914-8.199,7.274-14.669,14.106-18.145l-1.792-2.463c-7.457,3.885-13.281,10.966-15.363,19.91   c-3.726,15.976,5.9,31.823,21.495,35.385c1.473,0.335,2.353,0.387,3.818,0.485v-2.897c-1.374-0.079-1.769-0.129-3.148-0.446   C17.337,73.752,8.777,59.502,12.133,45.105z M55.5,36.912c0,5.331-1.815,10.219-4.838,14.063l1.152,0.815   c3.181-4.075,5.083-9.254,5.083-14.879c0-11.225-7.561-20.63-17.732-23.134l-0.006,1.469C48.571,17.708,55.5,26.472,55.5,36.912z    M34.116,7.464c-1.506,0-2.989,0.119-4.433,0.346l0.272,2.933c1.355-0.226,2.745-0.346,4.161-0.346   c14.252,0,25.804,11.974,25.804,26.745c0,8.638-3.947,16.313-10.074,21.204l2.32,1.99c6.633-5.437,10.877-13.81,10.877-23.194   C63.043,20.753,50.093,7.464,34.116,7.464z M31.981,34.61l-2.18-2.988c-5.781,2.766-10.294,8.014-11.851,14.693   c-2.357,10.118,2.834,20.225,11.92,24.513l0.784-3.668c-7.084-3.774-11.039-11.895-9.147-20.031   C22.86,41.336,26.878,36.833,31.981,34.61z"/>
</g>
</svg>
